<svg width="35" height="35" viewBox="0 0 35 35" fill="none" xmlns="http://www.w3.org/2000/svg">
<circle cx="17.5" cy="17.5" r="17.5" fill="#F5F5F5"/>
<path d="M23.4375 21.7288V23.6976C23.4382 23.8803 23.4008 24.0612 23.3276 24.2287C23.2544 24.3962 23.147 24.5465 23.0123 24.67C22.8776 24.7936 22.7186 24.8877 22.5455 24.9462C22.3724 25.0048 22.1889 25.0265 22.0069 25.0101C19.9875 24.7906 18.0477 24.1006 16.3434 22.9954C14.7578 21.9878 13.4135 20.6435 12.4059 19.0579C11.2969 17.3459 10.6067 15.3967 10.3913 13.3682C10.3749 13.1867 10.3964 13.0038 10.4546 12.8311C10.5127 12.6584 10.6062 12.4998 10.7291 12.3652C10.8519 12.2306 11.0014 12.1231 11.1681 12.0495C11.3348 11.9758 11.515 11.9377 11.6972 11.9376H13.6659C13.9844 11.9344 14.2932 12.0472 14.5347 12.2549C14.7761 12.4626 14.9339 12.751 14.9784 13.0663C15.0615 13.6964 15.2156 14.315 15.4378 14.9104C15.5261 15.1453 15.5452 15.4005 15.4929 15.646C15.4405 15.8914 15.3189 16.1166 15.1425 16.2951L14.3091 17.1285C15.2433 18.7715 16.6036 20.1318 18.2466 21.066L19.08 20.2326C19.2584 20.0561 19.4837 19.9345 19.7291 19.8822C19.9745 19.8298 20.2298 19.849 20.4647 19.9373C21.0601 20.1594 21.6787 20.3135 22.3088 20.3966C22.6275 20.4416 22.9187 20.6022 23.1268 20.8478C23.3349 21.0934 23.4455 21.407 23.4375 21.7288Z" fill="black" stroke="black" stroke-linecap="round" stroke-linejoin="round"/>
<path d="M20.375 13C21.1076 13.1429 21.7808 13.5012 22.3085 14.029C22.8363 14.5567 23.1946 15.2299 23.3375 15.9625M20.375 10C21.897 10.1691 23.3162 10.8506 24.3997 11.9328C25.4832 13.0149 26.1665 14.4333 26.3375 15.955" stroke="black" stroke-linecap="round" stroke-linejoin="round"/>
</svg>
