<svg width="35" height="35" viewBox="0 0 35 35" fill="none" xmlns="http://www.w3.org/2000/svg">
<circle cx="17.5" cy="17.5" r="17.5" fill="#F7F7F7"/>
<path d="M24.5 12.6875C25.8289 12.6875 26.9062 11.6102 26.9062 10.2812C26.9062 8.95231 25.8289 7.875 24.5 7.875C23.1711 7.875 22.0938 8.95231 22.0938 10.2812C22.0938 11.6102 23.1711 12.6875 24.5 12.6875Z" fill="#E50000"/>
<path d="M23.66 13.9125C22.2863 13.615 21.1663 12.495 20.8688 11.1213C20.755 10.5875 20.7463 10.0713 20.8425 9.58125C20.9563 9.03875 20.5538 8.53125 19.9938 8.53125H13.125C10.71 8.53125 8.75 10.4913 8.75 12.9062V18.9875C8.75 21.4025 10.71 23.3625 13.125 23.3625H14.4375C14.6825 23.3625 14.9975 23.52 15.1375 23.7125L16.45 25.4538C17.0275 26.2238 17.9725 26.2238 18.55 25.4538L19.8625 23.7125C20.0287 23.4938 20.2825 23.3625 20.5625 23.3625H21.8837C24.2987 23.3625 26.25 21.4113 26.25 18.9963V14.7875C26.25 14.2362 25.7425 13.8338 25.2 13.9388C24.71 14.0263 24.1938 14.0262 23.66 13.9125ZM14 17.2812C13.51 17.2812 13.125 16.8875 13.125 16.4062C13.125 15.925 13.51 15.5312 14 15.5312C14.4812 15.5312 14.875 15.925 14.875 16.4062C14.875 16.8875 14.49 17.2812 14 17.2812ZM17.5 17.2812C17.01 17.2812 16.625 16.8875 16.625 16.4062C16.625 15.925 17.01 15.5312 17.5 15.5312C17.9812 15.5312 18.375 15.925 18.375 16.4062C18.375 16.8875 17.99 17.2812 17.5 17.2812ZM21 17.2812C20.51 17.2812 20.125 16.8875 20.125 16.4062C20.125 15.925 20.51 15.5312 21 15.5312C21.4812 15.5312 21.875 15.925 21.875 16.4062C21.875 16.8875 21.49 17.2812 21 17.2812Z" fill="#151B33"/>
</svg>
