<svg width="19" height="19" viewBox="0 0 19 19" fill="none" xmlns="http://www.w3.org/2000/svg">
<g clip-path="url(#clip0_1905_1043)">
<path d="M7.23633 0H1.29883C0.954358 0 0.623995 0.13684 0.380418 0.380418C0.13684 0.623995 0 0.954358 0 1.29883L0 5.00977C0 5.35424 0.13684 5.6846 0.380418 5.92818C0.623995 6.17175 0.954358 6.30859 1.29883 6.30859H7.23633C7.5808 6.30859 7.91116 6.17175 8.15474 5.92818C8.39832 5.6846 8.53516 5.35424 8.53516 5.00977V1.29883C8.53516 0.954358 8.39832 0.623995 8.15474 0.380418C7.91116 0.13684 7.5808 0 7.23633 0ZM7.42188 5.00977C7.42188 5.05898 7.40233 5.10617 7.36753 5.14097C7.33273 5.17576 7.28554 5.19531 7.23633 5.19531H1.29883C1.24962 5.19531 1.20242 5.17576 1.16763 5.14097C1.13283 5.10617 1.11328 5.05898 1.11328 5.00977V1.29883C1.11328 1.24962 1.13283 1.20242 1.16763 1.16763C1.20242 1.13283 1.24962 1.11328 1.29883 1.11328H7.23633C7.28554 1.11328 7.33273 1.13283 7.36753 1.16763C7.40233 1.20242 7.42188 1.24962 7.42188 1.29883V5.00977Z" fill="black"/>
<path d="M7.23633 7.42188H1.29883C0.954358 7.42188 0.623995 7.55872 0.380418 7.80229C0.13684 8.04587 0 8.37623 0 8.7207L0 17.5527C0 17.8972 0.13684 18.2276 0.380418 18.4711C0.623995 18.7147 0.954358 18.8516 1.29883 18.8516H7.23633C7.5808 18.8516 7.91116 18.7147 8.15474 18.4711C8.39832 18.2276 8.53516 17.8972 8.53516 17.5527V8.7207C8.53516 8.37623 8.39832 8.04587 8.15474 7.80229C7.91116 7.55872 7.5808 7.42188 7.23633 7.42188ZM7.42188 17.5527C7.42188 17.6019 7.40233 17.6491 7.36753 17.6839C7.33273 17.7187 7.28554 17.7383 7.23633 17.7383H1.29883C1.24962 17.7383 1.20242 17.7187 1.16763 17.6839C1.13283 17.6491 1.11328 17.6019 1.11328 17.5527V8.7207C1.11328 8.67149 1.13283 8.6243 1.16763 8.5895C1.20242 8.5547 1.24962 8.53516 1.29883 8.53516H7.23633C7.28554 8.53516 7.33273 8.5547 7.36753 8.5895C7.40233 8.6243 7.42188 8.67149 7.42188 8.7207V17.5527Z" fill="black"/>
<path d="M17.7012 12.6914H11.7637C11.4192 12.6914 11.0888 12.8282 10.8453 13.0718C10.6017 13.3154 10.4648 13.6458 10.4648 13.9902V17.7012C10.4648 18.0456 10.6017 18.376 10.8453 18.6196C11.0888 18.8632 11.4192 19 11.7637 19H17.7012C18.0456 19 18.376 18.8632 18.6196 18.6196C18.8632 18.376 19 18.0456 19 17.7012V13.9902C19 13.6458 18.8632 13.3154 18.6196 13.0718C18.376 12.8282 18.0456 12.6914 17.7012 12.6914ZM17.8867 17.7012C17.8867 17.7504 17.8672 17.7976 17.8324 17.8324C17.7976 17.8672 17.7504 17.8867 17.7012 17.8867H11.7637C11.7145 17.8867 11.6673 17.8672 11.6325 17.8324C11.5977 17.7976 11.5781 17.7504 11.5781 17.7012V13.9902C11.5781 13.941 11.5977 13.8938 11.6325 13.859C11.6673 13.8242 11.7145 13.8047 11.7637 13.8047H17.7012C17.7504 13.8047 17.7976 13.8242 17.8324 13.859C17.8672 13.8938 17.8867 13.941 17.8867 13.9902V17.7012Z" fill="black"/>
<path d="M17.7012 0.148438H11.7637C11.4192 0.148438 11.0888 0.285278 10.8453 0.528855C10.6017 0.772433 10.4648 1.1028 10.4648 1.44727V10.2793C10.4648 10.4499 10.4984 10.6188 10.5637 10.7763C10.629 10.9339 10.7247 11.0771 10.8453 11.1977C10.9659 11.3183 11.1091 11.414 11.2666 11.4793C11.4242 11.5445 11.5931 11.5781 11.7637 11.5781H17.7012C17.8717 11.5781 18.0406 11.5445 18.1982 11.4793C18.3558 11.414 18.499 11.3183 18.6196 11.1977C18.7402 11.0771 18.8359 10.9339 18.9011 10.7763C18.9664 10.6188 19 10.4499 19 10.2793V1.44727C19 1.1028 18.8632 0.772433 18.6196 0.528855C18.376 0.285278 18.0456 0.148438 17.7012 0.148438ZM17.8867 10.2793C17.8867 10.3285 17.8672 10.3757 17.8324 10.4105C17.7976 10.4453 17.7504 10.4648 17.7012 10.4648H11.7637C11.7145 10.4648 11.6673 10.4453 11.6325 10.4105C11.5977 10.3757 11.5781 10.3285 11.5781 10.2793V1.44727C11.5781 1.39806 11.5977 1.35086 11.6325 1.31606C11.6673 1.28127 11.7145 1.26172 11.7637 1.26172H17.7012C17.7504 1.26172 17.7976 1.28127 17.8324 1.31606C17.8672 1.35086 17.8867 1.39806 17.8867 1.44727V10.2793Z" fill="black"/>
</g>
<defs>
<clipPath id="clip0_1905_1043">
<rect width="19" height="19" fill="white"/>
</clipPath>
</defs>
</svg>
