<svg width="392" height="202" viewBox="0 0 392 202" fill="none" xmlns="http://www.w3.org/2000/svg">
<path d="M31.656 137.25H34.036V143.186H20.008V141.17L22.528 140.442L22.08 141.226V125.546L22.528 126.302L20.008 125.63V123.614L28.324 123.474V125.49L25.664 126.302L26.084 125.546V140.918L25.468 140.302H31.572L31.012 140.946L31.656 137.25ZM42.4572 127.898C44.6599 127.898 46.3772 128.551 47.6092 129.858C48.8412 131.165 49.4572 133.022 49.4572 135.43C49.4572 137.11 49.1586 138.557 48.5612 139.77C47.9639 140.965 47.1052 141.889 45.9852 142.542C44.8652 143.195 43.5212 143.522 41.9532 143.522C39.7506 143.522 38.0426 142.869 36.8292 141.562C35.6346 140.255 35.0372 138.398 35.0372 135.99C35.0372 134.31 35.3266 132.873 35.9052 131.678C36.5026 130.465 37.3519 129.531 38.4532 128.878C39.5546 128.225 40.8892 127.898 42.4572 127.898ZM42.2612 130.698C41.1972 130.698 40.4039 131.118 39.8812 131.958C39.3586 132.779 39.0972 134.058 39.0972 135.794C39.0972 137.53 39.3492 138.79 39.8532 139.574C40.3572 140.339 41.1226 140.722 42.1492 140.722C42.8959 140.722 43.5026 140.535 43.9692 140.162C44.4359 139.789 44.7906 139.219 45.0332 138.454C45.2759 137.689 45.3972 136.746 45.3972 135.626C45.3972 133.927 45.1359 132.686 44.6132 131.902C44.0906 131.099 43.3066 130.698 42.2612 130.698ZM57.3294 149.962C54.996 149.962 53.26 149.654 52.1214 149.038C50.9827 148.422 50.4134 147.507 50.4134 146.294C50.4134 145.361 50.7307 144.577 51.3654 143.942C52.0187 143.326 52.9707 142.813 54.2214 142.402L54.1654 143.186C53.456 143.13 52.8774 142.943 52.4294 142.626C51.9814 142.309 51.7574 141.889 51.7574 141.366C51.7574 141.198 51.7854 141.021 51.8414 140.834C51.8974 140.647 52 140.414 52.1494 140.134C52.2987 139.835 52.504 139.471 52.7654 139.042C53.0267 138.613 53.3534 138.071 53.7454 137.418L53.8014 138.062C52.868 137.633 52.1587 137.026 51.6734 136.242C51.188 135.458 50.9454 134.525 50.9454 133.442C50.9454 131.706 51.5334 130.353 52.7094 129.382C53.904 128.393 55.556 127.898 57.6654 127.898C59.1774 127.898 60.4654 128.159 61.5294 128.682L60.6334 128.514L65.3094 128.346V130.446L63.0974 130.894L63.3494 130.474C63.6294 130.81 63.844 131.202 63.9934 131.65C64.1427 132.098 64.2174 132.611 64.2174 133.19C64.2174 134.926 63.6107 136.298 62.3974 137.306C61.184 138.295 59.5507 138.79 57.4974 138.79C56.5267 138.79 55.5934 138.659 54.6974 138.398L55.3414 138.006L54.8934 141.002L54.3054 140.722H59.9054C61.7907 140.722 63.2187 141.086 64.1894 141.814C65.16 142.542 65.6454 143.606 65.6454 145.006C65.6454 146.611 64.9454 147.834 63.5454 148.674C62.164 149.533 60.092 149.962 57.3294 149.962ZM57.6654 147.218C59.1587 147.218 60.232 147.059 60.8854 146.742C61.5574 146.425 61.8934 145.958 61.8934 145.342C61.8934 144.745 61.6694 144.306 61.2214 144.026C60.7734 143.746 60.1294 143.606 59.2894 143.606H54.4174L55.3414 143.41C54.3334 144.045 53.8294 144.763 53.8294 145.566C53.8294 146.107 54.1374 146.518 54.7534 146.798C55.3694 147.078 56.34 147.218 57.6654 147.218ZM57.4974 136.158C58.412 136.158 59.112 135.915 59.5974 135.43C60.0827 134.945 60.3254 134.226 60.3254 133.274C60.3254 132.322 60.1014 131.631 59.6534 131.202C59.2054 130.754 58.5334 130.53 57.6374 130.53C56.7227 130.53 56.032 130.763 55.5654 131.23C55.0987 131.697 54.8654 132.397 54.8654 133.33C54.8654 134.245 55.0894 134.945 55.5374 135.43C55.9854 135.915 56.6387 136.158 57.4974 136.158ZM72.2914 140.89L72.0114 140.554L74.1674 141.17V143.186H66.4954V141.17L68.6514 140.554L68.3714 140.89V130.67L68.6234 130.922L66.4954 130.334V128.318L72.2914 128.122V140.89ZM70.2194 125.938C69.5288 125.938 68.9688 125.742 68.5394 125.35C68.1288 124.958 67.9234 124.398 67.9234 123.67C67.9234 122.886 68.1381 122.307 68.5674 121.934C69.0154 121.542 69.5754 121.346 70.2474 121.346C70.9008 121.346 71.4421 121.542 71.8714 121.934C72.3008 122.307 72.5154 122.877 72.5154 123.642C72.5154 124.407 72.2914 124.986 71.8434 125.378C71.4141 125.751 70.8728 125.938 70.2194 125.938ZM79.4415 132.014C79.4415 132.443 79.6282 132.789 80.0015 133.05C80.3748 133.311 80.8508 133.535 81.4295 133.722C82.0268 133.909 82.6522 134.105 83.3055 134.31C83.9775 134.515 84.6028 134.786 85.1815 135.122C85.7788 135.439 86.2642 135.869 86.6375 136.41C87.0108 136.951 87.1975 137.651 87.1975 138.51C87.1975 139.611 86.8988 140.535 86.3015 141.282C85.7042 142.029 84.8922 142.589 83.8655 142.962C82.8388 143.335 81.6815 143.522 80.3935 143.522C79.6468 143.522 78.8535 143.457 78.0135 143.326C77.1922 143.195 76.3428 143.018 75.4655 142.794L75.6335 138.566H78.0975L78.4055 141.03L78.0695 140.554C78.4428 140.666 78.8535 140.759 79.3015 140.834C79.7495 140.89 80.1415 140.918 80.4775 140.918C80.9628 140.918 81.4108 140.853 81.8215 140.722C82.2508 140.591 82.5962 140.405 82.8575 140.162C83.1375 139.901 83.2775 139.574 83.2775 139.182C83.2775 138.734 83.0908 138.379 82.7175 138.118C82.3442 137.857 81.8588 137.633 81.2615 137.446C80.6828 137.259 80.0668 137.063 79.4135 136.858C78.7788 136.653 78.1628 136.382 77.5655 136.046C76.9868 135.71 76.5108 135.262 76.1375 134.702C75.7642 134.142 75.5775 133.414 75.5775 132.518C75.5775 131.435 75.8482 130.558 76.3895 129.886C76.9308 129.195 77.6495 128.691 78.5455 128.374C79.4602 128.057 80.4588 127.898 81.5415 127.898C82.3068 127.898 83.1188 127.973 83.9775 128.122C84.8362 128.253 85.7135 128.449 86.6095 128.71L86.4695 132.462H83.9775L83.5295 130.25L84.0615 130.838C83.1842 130.595 82.4095 130.474 81.7375 130.474C81.0468 130.474 80.4868 130.614 80.0575 130.894C79.6468 131.155 79.4415 131.529 79.4415 132.014ZM94.1181 143.522C92.8301 143.522 91.8501 143.139 91.1781 142.374C90.5248 141.59 90.1981 140.433 90.1981 138.902V130.334L90.7021 130.838H88.0141V128.738L90.7581 128.094L90.1981 128.766V124.958L94.1461 124.258V128.766L93.7261 128.234H97.9821L97.9261 130.838H93.7261L94.1461 130.334V138.37C94.1461 139.173 94.2768 139.751 94.5381 140.106C94.7994 140.461 95.1914 140.638 95.7141 140.638C96.0128 140.638 96.3394 140.591 96.6941 140.498C97.0674 140.386 97.4688 140.246 97.8981 140.078L98.6261 142.234C97.0581 143.093 95.5554 143.522 94.1181 143.522ZM105.221 140.89L104.941 140.554L107.097 141.17V143.186H99.425V141.17L101.581 140.554L101.301 140.89V130.67L101.553 130.922L99.425 130.334V128.318L105.221 128.122V140.89ZM103.149 125.938C102.458 125.938 101.898 125.742 101.469 125.35C101.058 124.958 100.853 124.398 100.853 123.67C100.853 122.886 101.068 122.307 101.497 121.934C101.945 121.542 102.505 121.346 103.177 121.346C103.83 121.346 104.372 121.542 104.801 121.934C105.23 122.307 105.445 122.877 105.445 123.642C105.445 124.407 105.221 124.986 104.773 125.378C104.344 125.751 103.802 125.938 103.149 125.938ZM114.891 143.522C113.603 143.522 112.436 143.223 111.391 142.626C110.364 142.01 109.552 141.133 108.955 139.994C108.358 138.855 108.059 137.474 108.059 135.85C108.059 134.375 108.274 133.134 108.703 132.126C109.132 131.118 109.711 130.306 110.439 129.69C111.167 129.055 111.979 128.598 112.875 128.318C113.771 128.038 114.695 127.898 115.647 127.898C116.543 127.898 117.448 128.01 118.363 128.234C119.278 128.458 120.024 128.71 120.603 128.99L120.491 133.106H117.971L117.551 130.81L117.859 131.034C117.579 130.922 117.234 130.838 116.823 130.782C116.431 130.726 116.067 130.698 115.731 130.698C114.928 130.698 114.256 130.903 113.715 131.314C113.192 131.706 112.8 132.275 112.539 133.022C112.278 133.75 112.147 134.618 112.147 135.626C112.147 136.709 112.296 137.623 112.595 138.37C112.894 139.117 113.314 139.686 113.855 140.078C114.415 140.451 115.059 140.638 115.787 140.638C116.366 140.638 117 140.517 117.691 140.274C118.382 140.031 119.1 139.667 119.847 139.182L121.163 141.17C120.118 141.973 119.072 142.57 118.027 142.962C116.982 143.335 115.936 143.522 114.891 143.522ZM126.529 132.014C126.529 132.443 126.715 132.789 127.089 133.05C127.462 133.311 127.938 133.535 128.517 133.722C129.114 133.909 129.739 134.105 130.393 134.31C131.065 134.515 131.69 134.786 132.269 135.122C132.866 135.439 133.351 135.869 133.725 136.41C134.098 136.951 134.285 137.651 134.285 138.51C134.285 139.611 133.986 140.535 133.389 141.282C132.791 142.029 131.979 142.589 130.953 142.962C129.926 143.335 128.769 143.522 127.481 143.522C126.734 143.522 125.941 143.457 125.101 143.326C124.279 143.195 123.43 143.018 122.553 142.794L122.721 138.566H125.185L125.493 141.03L125.157 140.554C125.53 140.666 125.941 140.759 126.389 140.834C126.837 140.89 127.229 140.918 127.565 140.918C128.05 140.918 128.498 140.853 128.909 140.722C129.338 140.591 129.683 140.405 129.945 140.162C130.225 139.901 130.365 139.574 130.365 139.182C130.365 138.734 130.178 138.379 129.805 138.118C129.431 137.857 128.946 137.633 128.349 137.446C127.77 137.259 127.154 137.063 126.501 136.858C125.866 136.653 125.25 136.382 124.653 136.046C124.074 135.71 123.598 135.262 123.225 134.702C122.851 134.142 122.665 133.414 122.665 132.518C122.665 131.435 122.935 130.558 123.477 129.886C124.018 129.195 124.737 128.691 125.633 128.374C126.547 128.057 127.546 127.898 128.629 127.898C129.394 127.898 130.206 127.973 131.065 128.122C131.923 128.253 132.801 128.449 133.697 128.71L133.557 132.462H131.065L130.617 130.25L131.149 130.838C130.271 130.595 129.497 130.474 128.825 130.474C128.134 130.474 127.574 130.614 127.145 130.894C126.734 131.155 126.529 131.529 126.529 132.014ZM140.552 143.186V141.17L142.792 140.526L142.428 140.946V130.558L142.792 130.978H140.468V128.878L142.876 128.262L142.428 128.85V127.058C142.428 125.061 142.96 123.586 144.024 122.634C145.088 121.663 146.516 121.178 148.308 121.178C148.831 121.178 149.363 121.225 149.904 121.318C150.464 121.411 151.062 121.542 151.696 121.71L151.136 124.314C150.782 124.202 150.418 124.118 150.044 124.062C149.671 123.987 149.316 123.95 148.98 123.95C148.215 123.95 147.58 124.165 147.076 124.594C146.591 125.005 146.348 125.714 146.348 126.722V128.85L145.844 128.374H149.848L149.764 130.978H145.956L146.348 130.558V140.946L145.984 140.526L148.588 141.17V143.186H140.552ZM157.892 127.898C160.094 127.898 161.812 128.551 163.044 129.858C164.276 131.165 164.892 133.022 164.892 135.43C164.892 137.11 164.593 138.557 163.996 139.77C163.398 140.965 162.54 141.889 161.42 142.542C160.3 143.195 158.956 143.522 157.388 143.522C155.185 143.522 153.477 142.869 152.264 141.562C151.069 140.255 150.472 138.398 150.472 135.99C150.472 134.31 150.761 132.873 151.34 131.678C151.937 130.465 152.786 129.531 153.888 128.878C154.989 128.225 156.324 127.898 157.892 127.898ZM157.696 130.698C156.632 130.698 155.838 131.118 155.316 131.958C154.793 132.779 154.532 134.058 154.532 135.794C154.532 137.53 154.784 138.79 155.288 139.574C155.792 140.339 156.557 140.722 157.584 140.722C158.33 140.722 158.937 140.535 159.404 140.162C159.87 139.789 160.225 139.219 160.468 138.454C160.71 137.689 160.832 136.746 160.832 135.626C160.832 133.927 160.57 132.686 160.048 131.902C159.525 131.099 158.741 130.698 157.696 130.698ZM166.296 143.186V141.17L168.564 140.526L168.172 141.114V130.362L168.62 131.034L166.296 130.334V128.318L171.224 128.094L171.728 130.754L171.224 130.642C172.064 129.765 172.894 129.093 173.716 128.626C174.537 128.141 175.414 127.898 176.348 127.898C176.945 127.898 177.58 127.991 178.252 128.178L178 133.274H175.704L175.312 130.334L175.676 131.09C175.564 131.053 175.442 131.025 175.312 131.006C175.2 130.987 175.088 130.978 174.976 130.978C174.397 130.978 173.818 131.155 173.24 131.51C172.68 131.865 172.194 132.322 171.784 132.882L172.092 131.818V141.114L171.644 140.526L174.416 141.17V143.186H166.296ZM27.484 165.214H25.272L26.084 164.598V170.226L25.524 169.442L28.744 170.17V172.186H20.008V170.17L22.696 169.386L22.08 170.226V154.49L22.78 155.358L20.008 154.63V152.614L26.168 152.474H28.716C30.2653 152.474 31.5347 152.745 32.524 153.286C33.5133 153.809 34.2413 154.527 34.708 155.442C35.1933 156.357 35.436 157.393 35.436 158.55C35.436 159.801 35.1467 160.939 34.568 161.966C34.008 162.974 33.14 163.767 31.964 164.346C30.8067 164.925 29.3133 165.214 27.484 165.214ZM28.072 155.33H25.468L26.084 154.714V162.946L25.272 162.33H27.512C28.7627 162.33 29.7147 161.994 30.368 161.322C31.0213 160.65 31.348 159.754 31.348 158.634C31.348 157.607 31.068 156.805 30.508 156.226C29.9667 155.629 29.1547 155.33 28.072 155.33ZM43.2637 172.522C41.9011 172.522 40.7064 172.242 39.6797 171.682C38.6531 171.103 37.8504 170.254 37.2717 169.134C36.7117 167.995 36.4317 166.614 36.4317 164.99C36.4317 163.31 36.7304 161.873 37.3277 160.678C37.9437 159.465 38.8024 158.531 39.9037 157.878C41.0051 157.225 42.3024 156.898 43.7957 156.898C45.2517 156.898 46.4371 157.187 47.3518 157.766C48.2664 158.345 48.9384 159.138 49.3678 160.146C49.7971 161.135 50.0118 162.255 50.0118 163.506C50.0118 163.823 49.9931 164.141 49.9557 164.458C49.9371 164.775 49.8997 165.111 49.8438 165.466H39.5957V163.142H46.4837L45.9797 163.506C45.9984 162.759 45.9238 162.106 45.7557 161.546C45.6064 160.967 45.3451 160.519 44.9718 160.202C44.6171 159.885 44.1224 159.726 43.4877 159.726C42.7597 159.726 42.1717 159.941 41.7237 160.37C41.2757 160.781 40.9491 161.341 40.7437 162.05C40.5571 162.759 40.4637 163.553 40.4637 164.43C40.4637 165.419 40.5851 166.306 40.8277 167.09C41.0704 167.874 41.4624 168.49 42.0037 168.938C42.5637 169.386 43.2917 169.61 44.1878 169.61C44.8224 169.61 45.5037 169.498 46.2317 169.274C46.9784 169.031 47.7531 168.677 48.5557 168.21L49.8718 170.31C48.7891 171.057 47.6784 171.617 46.5397 171.99C45.4197 172.345 44.3277 172.522 43.2637 172.522ZM51.4629 172.186V170.17L53.7309 169.526L53.3389 170.114V159.362L53.7869 160.034L51.4629 159.334V157.318L56.3909 157.094L56.8949 159.754L56.3909 159.642C57.2309 158.765 58.0616 158.093 58.8829 157.626C59.7043 157.141 60.5816 156.898 61.5149 156.898C62.1123 156.898 62.7469 156.991 63.4189 157.178L63.1669 162.274H60.8709L60.4789 159.334L60.8429 160.09C60.7309 160.053 60.6096 160.025 60.4789 160.006C60.3669 159.987 60.2549 159.978 60.1429 159.978C59.5643 159.978 58.9856 160.155 58.4069 160.51C57.8469 160.865 57.3616 161.322 56.9509 161.882L57.2589 160.818V170.114L56.8109 169.526L59.5829 170.17V172.186H51.4629ZM69.9672 169.89L69.6872 169.554L71.8432 170.17V172.186H64.1712V170.17L66.3272 169.554L66.0472 169.89V159.67L66.2992 159.922L64.1712 159.334V157.318L69.9672 157.122V169.89ZM67.8952 154.938C67.2046 154.938 66.6446 154.742 66.2152 154.35C65.8046 153.958 65.5992 153.398 65.5992 152.67C65.5992 151.886 65.8139 151.307 66.2432 150.934C66.6912 150.542 67.2512 150.346 67.9232 150.346C68.5766 150.346 69.1179 150.542 69.5472 150.934C69.9766 151.307 70.1912 151.877 70.1912 152.642C70.1912 153.407 69.9672 153.986 69.5192 154.378C69.0899 154.751 68.5486 154.938 67.8952 154.938ZM77.1173 161.014C77.1173 161.443 77.3039 161.789 77.6773 162.05C78.0506 162.311 78.5266 162.535 79.1053 162.722C79.7026 162.909 80.3279 163.105 80.9813 163.31C81.6533 163.515 82.2786 163.786 82.8573 164.122C83.4546 164.439 83.9399 164.869 84.3133 165.41C84.6866 165.951 84.8733 166.651 84.8733 167.51C84.8733 168.611 84.5746 169.535 83.9773 170.282C83.3799 171.029 82.5679 171.589 81.5413 171.962C80.5146 172.335 79.3573 172.522 78.0693 172.522C77.3226 172.522 76.5293 172.457 75.6893 172.326C74.8679 172.195 74.0186 172.018 73.1413 171.794L73.3093 167.566H75.7733L76.0813 170.03L75.7453 169.554C76.1186 169.666 76.5293 169.759 76.9773 169.834C77.4253 169.89 77.8173 169.918 78.1533 169.918C78.6386 169.918 79.0866 169.853 79.4973 169.722C79.9266 169.591 80.2719 169.405 80.5333 169.162C80.8133 168.901 80.9533 168.574 80.9533 168.182C80.9533 167.734 80.7666 167.379 80.3933 167.118C80.0199 166.857 79.5346 166.633 78.9373 166.446C78.3586 166.259 77.7426 166.063 77.0893 165.858C76.4546 165.653 75.8386 165.382 75.2413 165.046C74.6626 164.71 74.1866 164.262 73.8133 163.702C73.4399 163.142 73.2533 162.414 73.2533 161.518C73.2533 160.435 73.5239 159.558 74.0653 158.886C74.6066 158.195 75.3253 157.691 76.2213 157.374C77.1359 157.057 78.1346 156.898 79.2173 156.898C79.9826 156.898 80.7946 156.973 81.6533 157.122C82.5119 157.253 83.3893 157.449 84.2853 157.71L84.1453 161.462H81.6533L81.2053 159.25L81.7373 159.838C80.8599 159.595 80.0853 159.474 79.4133 159.474C78.7226 159.474 78.1626 159.614 77.7333 159.894C77.3226 160.155 77.1173 160.529 77.1173 161.014ZM85.9699 172.186V170.17L88.2939 169.498L87.8179 170.058V152.698L88.2939 153.314L85.9699 152.642V150.626L91.7379 150.402V159.782L90.8699 159.586C91.7659 158.671 92.7179 157.999 93.7259 157.57C94.7339 157.122 95.6952 156.898 96.6099 156.898C97.4499 156.898 98.2059 157.075 98.8779 157.43C99.5499 157.785 100.073 158.317 100.446 159.026C100.838 159.717 101.025 160.594 101.006 161.658V170.058L100.642 169.498L102.882 170.17V172.186H95.4059V170.17L97.5619 169.554L97.0859 170.142V162.498C97.1045 161.602 96.9085 160.939 96.4979 160.51C96.0872 160.081 95.5552 159.866 94.9019 159.866C94.3979 159.866 93.8472 160.006 93.2499 160.286C92.6525 160.566 92.0552 160.986 91.4579 161.546L91.7379 160.958V170.142L91.3739 169.554L93.4179 170.17V172.186H85.9699ZM116.375 170.198L115.843 169.414L118.251 170.17V172.158L113.351 172.41L112.819 169.722L113.099 169.806C112.352 170.721 111.54 171.402 110.663 171.85C109.785 172.298 108.88 172.522 107.947 172.522C106.752 172.522 105.763 172.139 104.979 171.374C104.195 170.609 103.803 169.507 103.803 168.07C103.803 167.006 104.027 166.166 104.475 165.55C104.941 164.915 105.613 164.458 106.491 164.178C107.368 163.898 108.432 163.758 109.683 163.758H112.735L112.455 164.066V162.218C112.455 161.341 112.24 160.715 111.811 160.342C111.4 159.969 110.793 159.782 109.991 159.782C109.599 159.782 109.179 159.819 108.731 159.894C108.283 159.969 107.797 160.081 107.275 160.23L107.667 159.81L107.303 162.078H104.867L104.643 157.99C105.912 157.617 107.069 157.346 108.115 157.178C109.179 156.991 110.149 156.898 111.027 156.898C112.763 156.898 114.088 157.271 115.003 158.018C115.917 158.765 116.375 159.922 116.375 161.49V170.198ZM107.751 167.678C107.751 168.369 107.909 168.882 108.227 169.218C108.563 169.535 108.983 169.694 109.487 169.694C109.953 169.694 110.467 169.554 111.027 169.274C111.587 168.975 112.119 168.574 112.623 168.07L112.455 168.742V165.55L112.735 165.83H110.327C109.356 165.83 108.684 165.979 108.311 166.278C107.937 166.577 107.751 167.043 107.751 167.678ZM125.266 172.522C124.538 172.522 123.754 172.475 122.914 172.382C122.074 172.289 121.169 172.149 120.198 171.962V152.306L120.814 153.37L118.322 152.642V150.626L124.118 150.402V159.642L123.642 159.054C124.314 158.382 125.051 157.859 125.854 157.486C126.657 157.094 127.506 156.898 128.402 156.898C129.485 156.898 130.437 157.187 131.258 157.766C132.079 158.326 132.723 159.166 133.19 160.286C133.675 161.406 133.918 162.787 133.918 164.43C133.918 165.606 133.769 166.689 133.47 167.678C133.19 168.649 132.714 169.498 132.042 170.226C131.389 170.954 130.502 171.523 129.382 171.934C128.281 172.326 126.909 172.522 125.266 172.522ZM125.966 169.722C127.31 169.722 128.29 169.283 128.906 168.406C129.522 167.529 129.83 166.306 129.83 164.738C129.83 163.711 129.709 162.834 129.466 162.106C129.223 161.359 128.887 160.79 128.458 160.398C128.029 159.987 127.497 159.782 126.862 159.782C126.377 159.782 125.863 159.913 125.322 160.174C124.781 160.435 124.221 160.837 123.642 161.378L124.118 160.174V170.338L123.642 169.386C124.519 169.61 125.294 169.722 125.966 169.722ZM140.718 169.89L140.438 169.554L142.594 170.17V172.186H134.95V170.17L137.106 169.554L136.798 169.89V152.95L137.05 153.23L134.95 152.642V150.626L140.718 150.402V169.89ZM150.453 172.522C149.091 172.522 147.896 172.242 146.869 171.682C145.843 171.103 145.04 170.254 144.461 169.134C143.901 167.995 143.621 166.614 143.621 164.99C143.621 163.31 143.92 161.873 144.517 160.678C145.133 159.465 145.992 158.531 147.093 157.878C148.195 157.225 149.492 156.898 150.985 156.898C152.441 156.898 153.627 157.187 154.541 157.766C155.456 158.345 156.128 159.138 156.557 160.146C156.987 161.135 157.201 162.255 157.201 163.506C157.201 163.823 157.183 164.141 157.145 164.458C157.127 164.775 157.089 165.111 157.033 165.466H146.785V163.142H153.673L153.169 163.506C153.188 162.759 153.113 162.106 152.945 161.546C152.796 160.967 152.535 160.519 152.161 160.202C151.807 159.885 151.312 159.726 150.677 159.726C149.949 159.726 149.361 159.941 148.913 160.37C148.465 160.781 148.139 161.341 147.933 162.05C147.747 162.759 147.653 163.553 147.653 164.43C147.653 165.419 147.775 166.306 148.017 167.09C148.26 167.874 148.652 168.49 149.193 168.938C149.753 169.386 150.481 169.61 151.377 169.61C152.012 169.61 152.693 169.498 153.421 169.274C154.168 169.031 154.943 168.677 155.745 168.21L157.061 170.31C155.979 171.057 154.868 171.617 153.729 171.99C152.609 172.345 151.517 172.522 150.453 172.522ZM162.965 161.014C162.965 161.443 163.151 161.789 163.525 162.05C163.898 162.311 164.374 162.535 164.953 162.722C165.55 162.909 166.175 163.105 166.829 163.31C167.501 163.515 168.126 163.786 168.705 164.122C169.302 164.439 169.787 164.869 170.161 165.41C170.534 165.951 170.721 166.651 170.721 167.51C170.721 168.611 170.422 169.535 169.825 170.282C169.227 171.029 168.415 171.589 167.389 171.962C166.362 172.335 165.205 172.522 163.917 172.522C163.17 172.522 162.377 172.457 161.537 172.326C160.715 172.195 159.866 172.018 158.989 171.794L159.157 167.566H161.621L161.929 170.03L161.593 169.554C161.966 169.666 162.377 169.759 162.825 169.834C163.273 169.89 163.665 169.918 164.001 169.918C164.486 169.918 164.934 169.853 165.345 169.722C165.774 169.591 166.119 169.405 166.381 169.162C166.661 168.901 166.801 168.574 166.801 168.182C166.801 167.734 166.614 167.379 166.241 167.118C165.867 166.857 165.382 166.633 164.785 166.446C164.206 166.259 163.59 166.063 162.937 165.858C162.302 165.653 161.686 165.382 161.089 165.046C160.51 164.71 160.034 164.262 159.661 163.702C159.287 163.142 159.101 162.414 159.101 161.518C159.101 160.435 159.371 159.558 159.913 158.886C160.454 158.195 161.173 157.691 162.069 157.374C162.983 157.057 163.982 156.898 165.065 156.898C165.83 156.898 166.642 156.973 167.501 157.122C168.359 157.253 169.237 157.449 170.133 157.71L169.993 161.462H167.501L167.053 159.25L167.585 159.838C166.707 159.595 165.933 159.474 165.261 159.474C164.57 159.474 164.01 159.614 163.581 159.894C163.17 160.155 162.965 160.529 162.965 161.014Z" fill="#142272" fill-opacity="0.4"/>
<path d="M334.544 32.9021C339.789 40.244 333.857 52.2987 341.582 57.7806C349.101 63.1168 358.175 54.1449 365.257 58.7319C375.763 65.5364 374.191 97.1948 359.144 117.013C354.619 122.973 350.81 125.313 349.183 132.017C345.689 146.412 358.59 154.817 356.226 161.943C350.905 177.988 266.624 192.291 232.245 144.6C216.188 122.327 213.48 89.9478 227.356 65.1883C252.43 20.4483 322.777 16.4284 334.544 32.9021Z" fill="#F4F7FA"/>
<path d="M281.827 155.561L238.294 152.25V29.748L281.827 26.5239V155.561Z" fill="url(#paint0_linear_2848_3960)"/>
<path d="M242.511 74.4185V126.479H241.659V139.803H281.827V74.4185H242.511Z" fill="#D8DEE8"/>
<mask id="mask0_2848_3960" style="mask-type:luminance" maskUnits="userSpaceOnUse" x="241" y="32" width="41" height="118">
<path d="M241.659 146.895V35.109L281.827 32.4092V149.676L241.659 146.895Z" fill="white"/>
</mask>
<g mask="url(#mask0_2848_3960)">
<path d="M294.857 17.5957C294.857 17.5957 294.899 45.7768 301.219 58.7132C307.538 71.6497 309.916 84.2444 305.16 91.6189C300.405 98.9934 281.827 87.7407 281.827 87.7407C281.827 87.7407 273.061 93.9252 269.099 107.159C265.136 120.393 239.377 131.42 233.829 127.69C228.281 123.959 230.659 24.086 230.659 24.086L294.857 17.5957Z" fill="white"/>
<path d="M232.64 135.284C232.64 135.284 248.249 142.563 260.061 135.837C271.873 129.111 281.827 117.025 281.827 117.025C281.827 117.025 293.84 124.386 300.293 123.975C306.746 123.563 311.519 102.859 311.519 102.859C311.519 102.859 322.201 97.5507 326.956 86.78C331.712 76.0093 346.309 64.2795 354.3 61.8224C362.291 59.3653 366.981 63.9523 366.981 63.9523L365 157.833L241.659 164.292L232.64 135.284Z" fill="white"/>
</g>
<path d="M311.519 148.523H362.291V33.7334H311.519V148.523Z" fill="url(#paint1_linear_2848_3960)"/>
<path d="M358.174 143.278V38.8975H311.519L297.519 78.3132L311.519 143.278H358.174Z" fill="#D8DEE8"/>
<mask id="mask1_2848_3960" style="mask-type:luminance" maskUnits="userSpaceOnUse" x="311" y="38" width="48" height="106">
<path d="M358.174 143.278V38.8975L311.519 38.8975V143.278H358.174Z" fill="white"/>
</mask>
<g mask="url(#mask1_2848_3960)">
<path d="M232.64 135.284C232.64 135.284 248.249 142.563 260.061 135.837C271.873 129.111 281.827 117.025 281.827 117.025C281.827 117.025 293.84 124.386 300.293 123.975C306.746 123.563 311.519 102.859 311.519 102.859C311.519 102.859 322.201 97.5507 326.956 86.78C331.712 76.0093 346.309 64.2795 354.3 61.8224C362.291 59.3653 366.981 63.9523 366.981 63.9523L365 157.833L241.659 164.292L232.64 135.284Z" fill="white"/>
<path d="M302.933 21.1006C302.933 21.1006 298.725 40.4101 302.933 45.5283C307.142 50.6465 310.349 65.2953 311.519 69.265C312.69 73.2347 321.804 81.9239 326.56 74.0127C331.315 66.1016 338.448 60.3311 342.015 57.6684C345.582 55.0056 368.17 52.2711 369.359 50.27C370.547 48.2688 371.34 25.5617 371.34 25.5617L302.933 21.1006Z" fill="white"/>
</g>
<path d="M311.519 148.522L281.827 155.561V26.5239L311.519 33.733V38.8972L305.961 49.9295L304.263 141.096L311.519 143.278V148.522Z" fill="url(#paint2_linear_2848_3960)"/>
<path d="M311.519 125.792V40.238L301.064 36.659L295.878 35.5134L294.984 35.4082V87.6051H281.827V125.792H311.519Z" fill="#97A6B7"/>
<mask id="mask2_2848_3960" style="mask-type:luminance" maskUnits="userSpaceOnUse" x="281" y="32" width="31" height="118">
<path d="M281.827 149.676V32.4092L311.519 38.8971V143.286L281.827 149.676Z" fill="white"/>
</mask>
<g mask="url(#mask2_2848_3960)">
<path d="M294.857 17.5957C294.857 17.5957 294.899 45.7768 301.219 58.7132C307.538 71.6497 309.916 84.2444 305.161 91.6189C300.405 98.9934 281.827 87.7407 281.827 87.7407C281.827 87.7407 273.062 93.9252 269.099 107.159C265.136 120.393 239.377 131.42 233.829 127.69C228.281 123.959 230.659 24.086 230.659 24.086L294.857 17.5957Z" fill="#D8DEE8"/>
<path d="M232.64 135.284C232.64 135.284 248.249 142.563 260.061 135.837C271.873 129.111 281.827 117.025 281.827 117.025C281.827 117.025 293.84 124.386 300.293 123.975C306.746 123.563 311.52 102.859 311.52 102.859C311.52 102.859 322.201 97.5507 326.956 86.78C331.712 76.0093 346.309 64.2795 354.3 61.8224C362.291 59.3653 366.981 63.9523 366.981 63.9523L365 157.833L241.659 164.292L232.64 135.284Z" fill="#D8DEE8"/>
<path d="M302.934 21.1006C302.934 21.1006 298.725 40.4101 302.934 45.5283C307.142 50.6465 310.349 65.2953 311.519 69.265C312.69 73.2347 321.805 81.9239 326.56 74.0127C331.315 66.1016 338.449 60.3311 342.015 57.6684C345.582 55.0056 368.17 52.2711 369.359 50.27C370.548 48.2688 371.34 25.5617 371.34 25.5617L302.934 21.1006Z" fill="#D8DEE8"/>
</g>
<path opacity="0.53" d="M335.243 38.8975H334.451V148.522H335.243V38.8975Z" fill="url(#paint3_linear_2848_3960)"/>
<path opacity="0.53" d="M262.139 33.7593H261.347V148.522H262.139V33.7593Z" fill="url(#paint4_linear_2848_3960)"/>
<path opacity="0.53" d="M358.175 75.5847H311.473L311.428 75.5739L281.797 68.5313L241.692 71.9187L241.625 71.1288L281.857 67.731L281.919 67.7457L311.566 74.7921H358.175V75.5847Z" fill="url(#paint5_linear_2848_3960)"/>
<path d="M226.663 150.379V157.654C226.663 158.331 227.175 158.898 227.848 158.967L302.338 166.025L312.364 172.661L326.209 154.244L226.663 150.379Z" fill="url(#paint6_linear_2848_3960)"/>
<path d="M283.759 160.378V166.89C283.759 167.435 284.155 167.901 284.694 167.987L302.577 170.86L302.057 160.363L284.942 159.268C284.301 159.227 283.759 159.736 283.759 160.378Z" fill="url(#paint7_linear_2848_3960)"/>
<path d="M234.209 153.735C234.148 153.735 234.088 153.74 234.029 153.747L233.083 153.735L233.089 154.152C232.172 154.868 231.536 156.434 231.536 158.253C231.536 160.143 232.223 161.761 233.198 162.435L233.203 162.77H234.209C235.685 162.77 236.881 160.748 236.881 158.253C236.881 155.758 235.685 153.735 234.209 153.735Z" fill="url(#paint8_linear_2848_3960)"/>
<path d="M233.083 162.77C234.559 162.77 235.755 160.748 235.755 158.253C235.755 155.758 234.559 153.735 233.083 153.735C231.607 153.735 230.411 155.758 230.411 158.253C230.411 160.748 231.607 162.77 233.083 162.77Z" fill="url(#paint9_linear_2848_3960)"/>
<path d="M232.708 160.791C233.537 160.791 234.209 159.654 234.209 158.253C234.209 156.851 233.537 155.715 232.708 155.715C231.878 155.715 231.206 156.851 231.206 158.253C231.206 159.654 231.878 160.791 232.708 160.791Z" fill="#D8DEE8"/>
<path d="M232.935 160.609C233.638 160.609 234.209 159.554 234.209 158.253C234.209 156.951 233.638 155.896 232.935 155.896C232.231 155.896 231.66 156.951 231.66 158.253C231.66 159.554 232.231 160.609 232.935 160.609Z" fill="url(#paint10_linear_2848_3960)"/>
<path d="M240.524 154.244C240.458 154.244 240.392 154.249 240.327 154.256L239.291 154.244L239.297 154.7C238.293 155.485 237.596 157.201 237.596 159.193C237.596 161.264 238.349 163.037 239.417 163.775L239.422 164.143H240.524C242.141 164.143 243.452 161.927 243.452 159.193C243.452 156.46 242.141 154.244 240.524 154.244Z" fill="url(#paint11_linear_2848_3960)"/>
<path d="M239.291 164.143C240.908 164.143 242.219 161.927 242.219 159.194C242.219 156.46 240.908 154.244 239.291 154.244C237.674 154.244 236.363 156.46 236.363 159.194C236.363 161.927 237.674 164.143 239.291 164.143Z" fill="url(#paint12_linear_2848_3960)"/>
<path d="M238.879 161.974C239.788 161.974 240.524 160.729 240.524 159.193C240.524 157.658 239.788 156.413 238.879 156.413C237.971 156.413 237.234 157.658 237.234 159.193C237.234 160.729 237.971 161.974 238.879 161.974Z" fill="#D8DEE8"/>
<path d="M240.524 159.193C240.524 160.619 239.899 161.775 239.128 161.775C238.357 161.775 237.732 160.619 237.732 159.193C237.732 157.768 238.357 156.612 239.128 156.612C239.899 156.612 240.524 157.768 240.524 159.193Z" fill="url(#paint13_linear_2848_3960)"/>
<path d="M247.265 154.244C247.193 154.244 247.121 154.249 247.05 154.257L245.919 154.244L245.925 154.742C244.829 155.599 244.068 157.472 244.068 159.648C244.068 161.909 244.89 163.845 246.056 164.651L246.062 165.052H247.265C249.031 165.052 250.462 162.632 250.462 159.648C250.462 156.663 249.031 154.244 247.265 154.244Z" fill="url(#paint14_linear_2848_3960)"/>
<path d="M245.919 165.052C247.684 165.052 249.116 162.633 249.116 159.648C249.116 156.664 247.684 154.244 245.919 154.244C244.153 154.244 242.722 156.664 242.722 159.648C242.722 162.633 244.153 165.052 245.919 165.052Z" fill="url(#paint15_linear_2848_3960)"/>
<path d="M245.469 162.684C246.461 162.684 247.265 161.325 247.265 159.648C247.265 157.971 246.461 156.612 245.469 156.612C244.477 156.612 243.673 157.971 243.673 159.648C243.673 161.325 244.477 162.684 245.469 162.684Z" fill="#D8DEE8"/>
<path d="M245.741 162.466C246.583 162.466 247.265 161.205 247.265 159.648C247.265 158.091 246.583 156.829 245.741 156.829C244.899 156.829 244.217 158.091 244.217 159.648C244.217 161.205 244.899 162.466 245.741 162.466Z" fill="url(#paint16_linear_2848_3960)"/>
<path d="M278.347 157.062C278.255 157.062 278.163 157.07 278.072 157.08L276.628 157.062L276.637 157.698C275.237 158.792 274.266 161.184 274.266 163.962C274.266 166.848 275.315 169.319 276.804 170.348L276.811 170.86H278.347C280.601 170.86 282.429 167.772 282.429 163.961C282.429 160.151 280.601 157.062 278.347 157.062Z" fill="url(#paint17_linear_2848_3960)"/>
<path d="M276.628 170.86C278.882 170.86 280.709 167.772 280.709 163.961C280.709 160.151 278.882 157.062 276.628 157.062C274.374 157.062 272.547 160.151 272.547 163.961C272.547 167.772 274.374 170.86 276.628 170.86Z" fill="url(#paint18_linear_2848_3960)"/>
<path d="M276.054 167.837C277.321 167.837 278.347 166.102 278.347 163.961C278.347 161.821 277.321 160.085 276.054 160.085C274.788 160.085 273.762 161.821 273.762 163.961C273.762 166.102 274.788 167.837 276.054 167.837Z" fill="#D8DEE8"/>
<path d="M276.402 167.56C277.476 167.56 278.347 165.948 278.347 163.961C278.347 161.974 277.476 160.363 276.402 160.363C275.327 160.363 274.456 161.974 274.456 163.961C274.456 165.948 275.327 167.56 276.402 167.56Z" fill="url(#paint19_linear_2848_3960)"/>
<path d="M305.507 158.153C305.388 158.153 305.271 158.162 305.155 158.175L303.31 158.153L303.321 158.965C301.533 160.363 300.293 163.419 300.293 166.967C300.293 170.655 301.633 173.812 303.535 175.127L303.544 175.781H305.507C308.386 175.781 310.721 171.835 310.721 166.967C310.721 162.099 308.386 158.153 305.507 158.153Z" fill="url(#paint20_linear_2848_3960)"/>
<path d="M303.31 175.781C306.19 175.781 308.524 171.835 308.524 166.967C308.524 162.099 306.19 158.153 303.31 158.153C300.431 158.153 298.096 162.099 298.096 166.967C298.096 171.835 300.431 175.781 303.31 175.781Z" fill="url(#paint21_linear_2848_3960)"/>
<path d="M302.577 171.918C304.195 171.918 305.507 169.702 305.507 166.967C305.507 164.232 304.195 162.015 302.577 162.015C300.96 162.015 299.648 164.232 299.648 166.967C299.648 169.702 300.96 171.918 302.577 171.918Z" fill="#D8DEE8"/>
<path d="M303.021 171.564C304.394 171.564 305.507 169.506 305.507 166.967C305.507 164.428 304.394 162.37 303.021 162.37C301.648 162.37 300.535 164.428 300.535 166.967C300.535 169.506 301.648 171.564 303.021 171.564Z" fill="url(#paint22_linear_2848_3960)"/>
<path d="M222.232 111.652C221.256 111.815 220.541 112.658 220.541 113.647V150.526C220.541 151.599 221.379 152.485 222.451 152.545L291.768 156.413V100.091L222.232 111.652Z" fill="url(#paint23_linear_2848_3960)"/>
<path d="M330.858 101.406L291.768 100.091V156.413H332.96V103.58C332.96 102.407 332.03 101.445 330.858 101.406Z" fill="url(#paint24_linear_2848_3960)"/>
<path opacity="0.3" d="M277.123 142.255C268.221 138.155 259.866 144.413 251.721 138.365C244.589 133.068 246.888 125.218 241.194 115.938C239.89 113.813 238.144 111.583 235.758 109.403L222.232 111.652C221.256 111.815 220.541 112.658 220.541 113.647V150.526C220.541 151.599 221.379 152.485 222.451 152.545L288.193 156.213C285.176 147.959 281.076 144.076 277.123 142.255Z" fill="url(#paint25_linear_2848_3960)"/>
<path d="M353.785 138.593L350.896 131.327L350.81 125.32L353.728 124.737C354.011 124.68 354.19 124.4 354.12 124.12C353.679 122.349 352.064 116.498 349.551 114.565C347.78 113.202 314.195 112.795 314.195 112.795L298.03 113.846C296.761 113.928 295.773 114.982 295.773 116.254V152.074C295.773 153.014 296.492 153.797 297.428 153.879L308.524 154.841L310.72 157.062C310.72 157.062 342.17 159.58 354.721 157.292C355.371 157.173 355.844 156.611 355.844 155.95V140.195C355.844 137.907 353.785 138.593 353.785 138.593Z" fill="#F4F7FA"/>
<path opacity="0.8" d="M319.687 140.767C319.687 140.767 319.344 125.206 319.687 118.798C319.854 115.69 318.297 113.877 316.65 112.831C315.114 112.806 314.195 112.795 314.195 112.795L298.03 113.846C296.761 113.928 295.773 114.982 295.773 116.254V152.074C295.773 153.014 296.492 153.797 297.428 153.879L308.524 154.841L310.72 157.062C310.72 157.062 315.899 157.477 322.891 157.816V144.543L319.687 140.767Z" fill="url(#paint26_linear_2848_3960)"/>
<path d="M355.486 160.083L354.242 159.648V157.127C354.242 156.447 353.692 155.896 353.012 155.896H314.065C313.126 155.896 312.364 156.658 312.364 157.598V172.661C312.364 173.489 313.053 174.152 313.881 174.12L355.584 172.516C356.368 172.486 356.989 171.841 356.989 171.057V162.201C356.989 161.247 356.386 160.398 355.486 160.083Z" fill="#97A6B7"/>
<path d="M350.741 147.141H327.648C326.87 147.141 326.256 147.8 326.31 148.576L327.582 166.707C327.646 167.617 328.419 168.314 329.332 168.283L349.172 167.611C350.038 167.582 350.743 166.904 350.806 166.039L352.078 148.58C352.135 147.803 351.52 147.141 350.741 147.141Z" fill="url(#paint27_linear_2848_3960)"/>
<g opacity="0.3">
<path d="M355.486 160.083L354.242 159.648V157.127C354.242 156.59 353.898 156.134 353.418 155.966L351.048 167.11C350.766 168.437 349.619 169.404 348.263 169.456L330.062 170.164C328.757 170.214 327.572 169.405 327.145 168.172L322.891 155.896H314.065C313.126 155.896 312.364 156.658 312.364 157.598V172.661C312.364 173.489 313.053 174.152 313.881 174.12L355.584 172.516C356.368 172.486 356.989 171.841 356.989 171.057V162.201C356.989 161.247 356.386 160.398 355.486 160.083Z" fill="#97A6B7"/>
</g>
<path d="M324.836 169.144L320.506 169.361C317.817 169.495 315.506 167.472 315.284 164.789L315.11 162.684H323.78C324.363 162.684 324.836 163.157 324.836 163.74V169.144Z" fill="url(#paint28_linear_2848_3960)"/>
<path d="M352.773 163.575L352.082 168.284C352.082 168.284 356.648 168.125 356.533 162.37L353.7 162.681C353.223 162.734 352.843 163.101 352.773 163.575Z" fill="url(#paint29_linear_2848_3960)"/>
<path d="M320.678 140.843C320.003 140.843 319.334 140.625 318.789 140.226L317.007 138.921C316.352 138.441 315.96 137.67 315.96 136.858V126.485C315.96 126.017 316.165 125.577 316.523 125.276C316.88 124.975 317.349 124.848 317.81 124.927L319.556 125.228L350.885 125.227L350.902 125.3L353.881 138.592L353.547 140.259L353.472 140.261L320.734 140.843C320.715 140.843 320.697 140.843 320.678 140.843ZM317.54 125.092C317.215 125.092 316.897 125.206 316.644 125.42C316.329 125.685 316.148 126.073 316.148 126.485V136.858C316.148 137.61 316.511 138.325 317.118 138.769L318.9 140.074C319.427 140.46 320.077 140.667 320.73 140.655L353.393 140.074L353.689 138.594L350.735 125.414H319.54L317.778 125.112C317.699 125.098 317.619 125.092 317.54 125.092Z" fill="#808080"/>
<path d="M350.81 125.321H319.54L317.794 125.02C316.885 124.863 316.054 125.563 316.054 126.485V136.858C316.054 137.644 316.429 138.382 317.062 138.846L318.844 140.151C319.391 140.551 320.054 140.761 320.732 140.749L353.47 140.167L353.785 138.594L350.81 125.321Z" fill="url(#paint30_linear_2848_3960)"/>
<path d="M331.373 121.716H328.712C328.309 121.716 327.983 122.043 327.983 122.446V123.561C327.983 123.964 328.309 124.291 328.712 124.291H331.373C331.775 124.291 332.102 123.964 332.102 123.561V122.446C332.102 122.043 331.775 121.716 331.373 121.716Z" fill="#97A6B7"/>
<path d="M346.991 121.716H344.331C343.928 121.716 343.601 122.043 343.601 122.446V123.561C343.601 123.964 343.928 124.291 344.331 124.291H346.991C347.394 124.291 347.72 123.964 347.72 123.561V122.446C347.72 122.043 347.394 121.716 346.991 121.716Z" fill="#97A6B7"/>
<path opacity="0.3" d="M341.027 132.701C332.958 129.615 325.367 133.462 321.89 129.269C320.95 128.135 320.57 126.724 320.482 125.321H319.54L317.794 125.02C316.885 124.863 316.054 125.563 316.054 126.485V136.858C316.054 137.644 316.429 138.382 317.062 138.846L318.844 140.15C319.391 140.551 320.054 140.761 320.732 140.749L350.388 140.222C347.036 135.703 343.631 133.697 341.027 132.701Z" fill="white"/>
<path d="M250.463 95.619C250.204 95.619 249.949 95.5006 249.783 95.2766C249.504 94.9013 249.583 94.3715 249.959 94.0932C249.96 94.0919 250.284 93.8517 250.855 93.4213C251.228 93.1397 251.759 93.214 252.04 93.5872C252.321 93.9602 252.247 94.4907 251.874 94.7721C251.294 95.2093 250.966 95.4526 250.966 95.4526C250.815 95.5649 250.638 95.619 250.463 95.619Z" fill="url(#paint31_linear_2848_3960)"/>
<path d="M329.344 99.2103C329.194 99.2102 329.035 99.204 328.872 99.1918C328.406 99.1571 328.057 98.7512 328.091 98.2853C328.126 97.8192 328.53 97.4686 328.998 97.5045C329.346 97.5305 329.642 97.5194 329.861 97.4712C330.2 97.397 330.536 97.3048 330.862 97.1969C331.305 97.0499 331.784 97.2901 331.931 97.7338C332.078 98.1773 331.838 98.656 331.395 98.803C331.013 98.9294 330.619 99.0375 330.223 99.1241C329.962 99.1813 329.666 99.2103 329.344 99.2103ZM326.736 98.7732C326.662 98.7732 326.587 98.7634 326.512 98.743C325.852 98.5621 325.112 98.3247 324.313 98.0375C323.874 97.8794 323.645 97.3948 323.803 96.9551C323.962 96.5153 324.446 96.2871 324.886 96.4453C325.644 96.7178 326.341 96.9417 326.959 97.111C327.41 97.2344 327.675 97.6998 327.552 98.1505C327.449 98.5263 327.108 98.7732 326.736 98.7732ZM333.166 97.9252C332.875 97.9252 332.592 97.775 332.434 97.5056C332.199 97.102 332.335 96.584 332.738 96.3484C333.322 96.0075 333.887 95.5984 334.418 95.1324C334.769 94.8242 335.304 94.8589 335.612 95.2098C335.92 95.5609 335.886 96.0955 335.535 96.4039C334.923 96.9413 334.269 97.4143 333.591 97.8097C333.457 97.888 333.31 97.9252 333.166 97.9252ZM322.506 97.2778C322.399 97.2778 322.29 97.2574 322.185 97.2141C321.529 96.9446 320.827 96.6435 320.099 96.3192C319.673 96.1289 319.481 95.6287 319.671 95.2019C319.862 94.7753 320.362 94.5835 320.788 94.7738C321.501 95.0912 322.187 95.3857 322.828 95.6489C323.26 95.8264 323.466 96.3207 323.289 96.7529C323.155 97.08 322.839 97.2778 322.506 97.2778ZM318.404 95.4557C318.283 95.4557 318.16 95.4297 318.043 95.3745C317.39 95.0658 316.706 94.7354 316.01 94.3927C315.591 94.1862 315.419 93.679 315.625 93.2599C315.832 92.8406 316.339 92.6685 316.758 92.8749C317.445 93.2134 318.121 93.5396 318.766 93.8445C319.189 94.044 319.37 94.5482 319.17 94.9708C319.025 95.2765 318.721 95.4557 318.404 95.4557ZM336.525 94.9993C336.337 94.9993 336.148 94.9371 335.991 94.8092C335.629 94.5141 335.574 93.9812 335.869 93.6189C336.304 93.0857 336.712 92.5018 337.083 91.8833C337.324 91.4826 337.843 91.3531 338.244 91.5931C338.645 91.8335 338.775 92.3533 338.534 92.7539C338.122 93.4413 337.666 94.0918 337.181 94.6875C337.014 94.8928 336.771 94.9993 336.525 94.9993ZM253.147 93.5861C252.893 93.5861 252.642 93.4722 252.475 93.2551C252.191 92.8845 252.26 92.3534 252.631 92.0689C253.163 91.661 253.757 91.2018 254.4 90.7006C254.768 90.4133 255.3 90.4792 255.588 90.8477C255.875 91.2163 255.809 91.7479 255.44 92.0352C254.794 92.5392 254.196 93.0011 253.661 93.4112C253.508 93.5291 253.327 93.5861 253.147 93.5861ZM314.377 93.4741C314.248 93.4741 314.117 93.4444 313.994 93.3816C313.343 93.0496 312.669 92.7012 311.992 92.3462C311.578 92.1291 311.419 91.6178 311.636 91.204C311.853 90.7902 312.364 90.6306 312.778 90.8476C313.45 91.1998 314.117 91.5451 314.763 91.8742C315.179 92.0866 315.344 92.5961 315.132 93.0123C314.982 93.3054 314.685 93.4741 314.377 93.4741ZM310.402 91.3912C310.267 91.3912 310.13 91.3587 310.003 91.2903C309.342 90.9352 308.681 90.5765 308.024 90.2163C307.614 89.9918 307.464 89.4775 307.689 89.0678C307.913 88.6579 308.428 88.5081 308.837 88.7327C309.49 89.0905 310.147 89.4468 310.803 89.7997C311.215 90.0208 311.37 90.5337 311.149 90.9453C310.996 91.2295 310.704 91.3912 310.402 91.3912ZM256.684 90.8291C256.435 90.8291 256.187 90.7191 256.021 90.5081C255.731 90.1417 255.792 89.6096 256.159 89.3197C256.722 88.8743 257.306 88.408 257.906 87.9255C258.27 87.6326 258.803 87.6904 259.096 88.0545C259.388 88.4186 259.331 88.9511 258.967 89.2439C258.363 89.7293 257.775 90.1983 257.209 90.6463C257.054 90.7694 256.868 90.8291 256.684 90.8291ZM306.467 89.2343C306.327 89.2343 306.186 89.1997 306.055 89.1268C305.394 88.7576 304.739 88.3889 304.094 88.0226C303.688 87.7918 303.546 87.2754 303.776 86.8691C304.007 86.4628 304.523 86.3205 304.93 86.5512C305.571 86.9155 306.222 87.2822 306.88 87.6493C307.288 87.8771 307.434 88.3924 307.206 88.8004C307.051 89.0779 306.763 89.2343 306.467 89.2343ZM260.177 88.0178C259.932 88.0178 259.69 87.9122 259.522 87.708C259.226 87.3465 259.279 86.8135 259.641 86.5173C260.209 86.0518 260.784 85.5763 261.36 85.0944C261.719 84.7945 262.252 84.8422 262.552 85.2005C262.852 85.559 262.804 86.0926 262.446 86.3923C261.865 86.8779 261.286 87.357 260.713 87.8262C260.556 87.9552 260.366 88.0178 260.177 88.0178ZM302.564 87.0182C302.42 87.0182 302.275 86.9816 302.142 86.9048C301.478 86.5218 300.828 86.144 300.197 85.774C299.794 85.5379 299.658 85.0195 299.894 84.6164C300.131 84.2131 300.649 84.078 301.052 84.3141C301.68 84.6822 302.327 85.058 302.987 85.4392C303.392 85.6726 303.531 86.19 303.298 86.5948C303.141 86.8663 302.856 87.0182 302.564 87.0182ZM263.615 85.1409C263.376 85.1409 263.139 85.0406 262.972 84.8453C262.668 84.4904 262.709 83.9562 263.064 83.6523C263.643 83.1562 264.209 82.6643 264.747 82.1901C265.098 81.8811 265.632 81.9147 265.941 82.2652C266.25 82.6157 266.217 83.1503 265.866 83.4594C265.323 83.9387 264.75 84.436 264.165 84.9373C264.005 85.074 263.81 85.1409 263.615 85.1409ZM298.691 84.7492C298.543 84.7492 298.394 84.7109 298.259 84.6302C297.585 84.2294 296.94 83.8421 296.328 83.4725C295.928 83.2308 295.8 82.7107 296.042 82.3108C296.284 81.9107 296.804 81.7829 297.204 82.0247C297.812 82.3923 298.454 82.7773 299.124 83.1759C299.525 83.4148 299.657 83.9341 299.418 84.3356C299.26 84.6015 298.979 84.7492 298.691 84.7492ZM294.849 82.4253C294.697 82.4253 294.544 82.3847 294.406 82.2994C293.711 81.8717 293.067 81.4698 292.492 81.105C292.097 80.8549 291.98 80.3322 292.23 79.9376C292.48 79.5429 293.002 79.4253 293.397 79.6757C293.967 80.0367 294.605 80.4349 295.293 80.8589C295.691 81.104 295.815 81.6251 295.57 82.0229C295.41 82.2824 295.133 82.4253 294.849 82.4253ZM266.976 82.1736C266.746 82.1736 266.518 82.081 266.351 81.8985C266.036 81.5538 266.059 81.0185 266.404 80.7032C266.977 80.1793 267.523 79.6686 268.026 79.1855C268.363 78.8618 268.899 78.8729 269.223 79.2101C269.546 79.5472 269.535 80.0828 269.198 80.4063C268.685 80.8988 268.129 81.4187 267.546 81.9518C267.384 82.1003 267.179 82.1736 266.976 82.1736ZM291.062 80.011C290.899 80.011 290.735 79.9642 290.59 79.8666C290.123 79.5521 289.644 79.2234 289.155 78.8879L288.734 78.5991C288.348 78.335 288.25 77.8085 288.514 77.4229C288.778 77.0375 289.305 76.9391 289.69 77.2032L290.112 77.4926C290.597 77.8252 291.072 78.1512 291.535 78.4629C291.923 78.7239 292.025 79.2496 291.764 79.6373C291.601 79.88 291.334 80.011 291.062 80.011ZM270.205 79.0643C269.992 79.0643 269.779 78.9846 269.615 78.8246C269.28 78.4987 269.272 77.9631 269.598 77.6283C270.154 77.0569 270.656 76.5149 271.089 76.0172C271.396 75.6648 271.93 75.6277 272.283 75.9348C272.635 76.2416 272.672 76.7761 272.365 77.1284C271.912 77.6495 271.389 78.2147 270.811 78.8083C270.645 78.9788 270.425 79.0643 270.205 79.0643ZM287.354 77.4939C287.194 77.4939 287.032 77.4488 286.889 77.3542C286.205 76.9038 285.596 76.5185 285.025 76.1765C284.624 75.9363 284.494 75.4167 284.734 75.0159C284.975 74.6151 285.494 74.4848 285.895 74.7251C286.487 75.0798 287.116 75.4775 287.82 75.9414C288.21 76.1984 288.318 76.7232 288.061 77.1134C287.898 77.3601 287.629 77.4939 287.354 77.4939ZM273.173 75.7075C272.962 75.7075 272.75 75.6289 272.586 75.4709C272.249 75.1469 272.239 74.6113 272.563 74.2746C273.171 73.6431 273.837 73.1321 274.541 72.7556C274.953 72.5355 275.466 72.691 275.686 73.1032C275.906 73.5153 275.751 74.0279 275.339 74.2481C274.791 74.5408 274.267 74.9446 273.782 75.4482C273.616 75.6207 273.395 75.7075 273.173 75.7075ZM283.501 75.2106C283.373 75.2106 283.243 75.1814 283.121 75.1197C282.434 74.7731 281.774 74.4839 281.161 74.26C280.722 74.0998 280.496 73.6141 280.656 73.1752C280.816 72.7362 281.302 72.51 281.741 72.6705C282.416 72.917 283.137 73.2328 283.883 73.609C284.3 73.8194 284.467 74.3283 284.257 74.7454C284.108 75.0404 283.81 75.2106 283.501 75.2106ZM279.293 73.7294C279.248 73.7294 279.202 73.7258 279.156 73.7183C278.452 73.6033 277.786 73.5856 277.17 73.6652C276.707 73.7258 276.283 73.398 276.223 72.9345C276.163 72.4711 276.49 72.0469 276.953 71.9871C277.732 71.8864 278.563 71.9069 279.428 72.0482C279.889 72.1235 280.202 72.5582 280.127 73.0194C280.059 73.4345 279.7 73.7294 279.293 73.7294Z" fill="url(#paint32_linear_2848_3960)"/>
<path d="M338.788 91.2669C338.675 91.2669 338.56 91.2442 338.45 91.1962C338.022 91.0095 337.826 90.5109 338.012 90.0826C338.267 89.4982 338.385 89.1223 338.386 89.1187C338.525 88.6729 338.999 88.4231 339.445 88.5617C339.891 88.7 340.14 89.1726 340.003 89.6186C339.997 89.6371 339.86 90.0793 339.564 90.7586C339.425 91.0769 339.114 91.2669 338.788 91.2669Z" fill="url(#paint33_linear_2848_3960)"/>
<path d="M273.317 48.5017C273.317 58.2679 259.635 76.089 253.443 83.654C251.903 85.5365 249.022 85.5365 247.481 83.654C241.29 76.089 227.608 58.2679 227.608 48.5017C227.608 35.8794 237.84 25.647 250.462 25.647C263.085 25.647 273.317 35.8794 273.317 48.5017Z" fill="url(#paint34_linear_2848_3960)"/>
<path d="M259.475 57.5144C264.452 52.5366 264.452 44.4661 259.475 39.4884C254.497 34.5107 246.427 34.5107 241.449 39.4885C236.471 44.4662 236.471 52.5367 241.449 57.5144C246.426 62.4921 254.497 62.4921 259.475 57.5144Z" fill="white"/>
<g opacity="0.3">
<path d="M250.361 74.2703C251.811 64.7213 258.117 61.6649 257.035 52.6483C255.787 42.2498 246.579 39.4802 246.357 30.2254C246.322 28.7355 246.524 27.2987 246.907 25.9229C235.973 27.6309 227.608 37.0891 227.608 48.5017C227.608 58.2679 241.29 76.0891 247.481 83.654C248.388 84.7621 249.759 85.2172 251.048 85.0208C249.94 80.8385 249.906 77.2669 250.361 74.2703Z" fill="url(#paint35_linear_2848_3960)"/>
</g>
<path d="M250.462 99.4444C253.042 99.4444 255.134 97.353 255.134 94.773C255.134 92.193 253.042 90.1016 250.462 90.1016C247.882 90.1016 245.791 92.193 245.791 94.773C245.791 97.353 247.882 99.4444 250.462 99.4444Z" fill="url(#paint36_linear_2848_3960)"/>
<path d="M351.181 64.3829C351.181 69.5051 344.005 78.852 340.758 82.8197C339.95 83.807 338.439 83.807 337.631 82.8197C334.383 78.852 327.207 69.5051 327.207 64.3829C327.207 57.7627 332.574 52.396 339.194 52.396C345.814 52.396 351.181 57.7627 351.181 64.3829Z" fill="url(#paint37_linear_2848_3960)"/>
<path d="M345.734 65.7733C346.5 62.1616 344.194 58.6124 340.582 57.8459C336.971 57.0795 333.421 59.3859 332.655 62.9976C331.888 66.6093 334.195 70.1585 337.807 70.925C341.418 71.6915 344.967 69.385 345.734 65.7733Z" fill="white"/>
<g opacity="0.3">
<path d="M339.141 77.8974C339.902 72.8891 343.209 71.2861 342.641 66.5571C341.987 61.1032 337.158 59.6506 337.041 54.7967C337.022 54.0152 337.129 53.2616 337.329 52.54C331.595 53.4359 327.207 58.3965 327.207 64.3823C327.207 69.5045 334.383 78.8514 337.631 82.8191C338.106 83.4002 338.825 83.6389 339.501 83.5359C338.92 81.3423 338.903 79.469 339.141 77.8974Z" fill="url(#paint38_linear_2848_3960)"/>
</g>
<path d="M339.194 91.1013C340.547 91.1013 341.644 90.0044 341.644 88.6512C341.644 87.2981 340.547 86.2012 339.194 86.2012C337.841 86.2012 336.744 87.2981 336.744 88.6512C336.744 90.0044 337.841 91.1013 339.194 91.1013Z" fill="url(#paint39_linear_2848_3960)"/>
<defs>
<linearGradient id="paint0_linear_2848_3960" x1="238.294" y1="91.0426" x2="281.827" y2="91.0426" gradientUnits="userSpaceOnUse">
<stop stop-color="#FF9085"/>
<stop offset="1" stop-color="#FB6FBB"/>
</linearGradient>
<linearGradient id="paint1_linear_2848_3960" x1="325.367" y1="61.4096" x2="375.811" y2="191.34" gradientUnits="userSpaceOnUse">
<stop stop-color="#FF9085"/>
<stop offset="1" stop-color="#FB6FBB"/>
</linearGradient>
<linearGradient id="paint2_linear_2848_3960" x1="269.66" y1="90.9688" x2="324.782" y2="91.3029" gradientUnits="userSpaceOnUse">
<stop stop-color="#FF9085"/>
<stop offset="1" stop-color="#FB6FBB"/>
</linearGradient>
<linearGradient id="paint3_linear_2848_3960" x1="334.451" y1="93.71" x2="335.243" y2="93.71" gradientUnits="userSpaceOnUse">
<stop stop-color="#311944"/>
<stop offset="1" stop-color="#A03976"/>
</linearGradient>
<linearGradient id="paint4_linear_2848_3960" x1="261.347" y1="91.1407" x2="262.139" y2="91.1407" gradientUnits="userSpaceOnUse">
<stop stop-color="#311944"/>
<stop offset="1" stop-color="#A03976"/>
</linearGradient>
<linearGradient id="paint5_linear_2848_3960" x1="241.625" y1="71.6578" x2="358.175" y2="71.6578" gradientUnits="userSpaceOnUse">
<stop stop-color="#311944"/>
<stop offset="1" stop-color="#A03976"/>
</linearGradient>
<linearGradient id="paint6_linear_2848_3960" x1="226.663" y1="161.52" x2="326.209" y2="161.52" gradientUnits="userSpaceOnUse">
<stop stop-color="#444B8C"/>
<stop offset="0.9964" stop-color="#26264F"/>
</linearGradient>
<linearGradient id="paint7_linear_2848_3960" x1="283.759" y1="165.063" x2="302.577" y2="165.063" gradientUnits="userSpaceOnUse">
<stop stop-color="#444B8C"/>
<stop offset="0.9964" stop-color="#26264F"/>
</linearGradient>
<linearGradient id="paint8_linear_2848_3960" x1="231.536" y1="158.253" x2="236.881" y2="158.253" gradientUnits="userSpaceOnUse">
<stop stop-color="#311944"/>
<stop offset="1" stop-color="#6B3976"/>
</linearGradient>
<linearGradient id="paint9_linear_2848_3960" x1="230.411" y1="158.253" x2="235.755" y2="158.253" gradientUnits="userSpaceOnUse">
<stop stop-color="#311944"/>
<stop offset="1" stop-color="#6B3976"/>
</linearGradient>
<linearGradient id="paint10_linear_2848_3960" x1="235.617" y1="158.614" x2="231.443" y2="158.052" gradientUnits="userSpaceOnUse">
<stop offset="0.0054" stop-color="#D8DEE8"/>
<stop offset="1" stop-color="#F4F7FA"/>
</linearGradient>
<linearGradient id="paint11_linear_2848_3960" x1="237.596" y1="159.193" x2="243.452" y2="159.193" gradientUnits="userSpaceOnUse">
<stop stop-color="#311944"/>
<stop offset="1" stop-color="#6B3976"/>
</linearGradient>
<linearGradient id="paint12_linear_2848_3960" x1="236.363" y1="159.194" x2="242.219" y2="159.194" gradientUnits="userSpaceOnUse">
<stop stop-color="#311944"/>
<stop offset="1" stop-color="#6B3976"/>
</linearGradient>
<linearGradient id="paint13_linear_2848_3960" x1="242.067" y1="159.589" x2="237.494" y2="158.973" gradientUnits="userSpaceOnUse">
<stop offset="0.0054" stop-color="#D8DEE8"/>
<stop offset="1" stop-color="#F4F7FA"/>
</linearGradient>
<linearGradient id="paint14_linear_2848_3960" x1="244.068" y1="159.648" x2="250.462" y2="159.648" gradientUnits="userSpaceOnUse">
<stop stop-color="#311944"/>
<stop offset="1" stop-color="#6B3976"/>
</linearGradient>
<linearGradient id="paint15_linear_2848_3960" x1="242.722" y1="159.648" x2="249.116" y2="159.648" gradientUnits="userSpaceOnUse">
<stop stop-color="#311944"/>
<stop offset="1" stop-color="#6B3976"/>
</linearGradient>
<linearGradient id="paint16_linear_2848_3960" x1="248.95" y1="160.08" x2="243.957" y2="159.408" gradientUnits="userSpaceOnUse">
<stop offset="0.0054" stop-color="#D8DEE8"/>
<stop offset="1" stop-color="#F4F7FA"/>
</linearGradient>
<linearGradient id="paint17_linear_2848_3960" x1="274.266" y1="163.961" x2="282.429" y2="163.961" gradientUnits="userSpaceOnUse">
<stop stop-color="#311944"/>
<stop offset="1" stop-color="#6B3976"/>
</linearGradient>
<linearGradient id="paint18_linear_2848_3960" x1="272.547" y1="163.961" x2="280.709" y2="163.961" gradientUnits="userSpaceOnUse">
<stop stop-color="#311944"/>
<stop offset="1" stop-color="#6B3976"/>
</linearGradient>
<linearGradient id="paint19_linear_2848_3960" x1="280.498" y1="164.513" x2="274.124" y2="163.655" gradientUnits="userSpaceOnUse">
<stop offset="0.0054" stop-color="#D8DEE8"/>
<stop offset="1" stop-color="#F4F7FA"/>
</linearGradient>
<linearGradient id="paint20_linear_2848_3960" x1="300.293" y1="166.967" x2="310.721" y2="166.967" gradientUnits="userSpaceOnUse">
<stop stop-color="#311944"/>
<stop offset="1" stop-color="#6B3976"/>
</linearGradient>
<linearGradient id="paint21_linear_2848_3960" x1="298.096" y1="166.967" x2="308.524" y2="166.967" gradientUnits="userSpaceOnUse">
<stop stop-color="#311944"/>
<stop offset="1" stop-color="#6B3976"/>
</linearGradient>
<linearGradient id="paint22_linear_2848_3960" x1="308.254" y1="167.671" x2="300.111" y2="166.575" gradientUnits="userSpaceOnUse">
<stop offset="0.0054" stop-color="#D8DEE8"/>
<stop offset="1" stop-color="#F4F7FA"/>
</linearGradient>
<linearGradient id="paint23_linear_2848_3960" x1="279.426" y1="119.359" x2="174.146" y2="187.771" gradientUnits="userSpaceOnUse">
<stop stop-color="#FFC444"/>
<stop offset="0.3138" stop-color="#FBA94A"/>
<stop offset="0.9964" stop-color="#F36F56"/>
</linearGradient>
<linearGradient id="paint24_linear_2848_3960" x1="349.82" y1="104.434" x2="269.938" y2="155.23" gradientUnits="userSpaceOnUse">
<stop stop-color="#FFC444"/>
<stop offset="0.3138" stop-color="#FBA94A"/>
<stop offset="0.9964" stop-color="#F36F56"/>
</linearGradient>
<linearGradient id="paint25_linear_2848_3960" x1="220.541" y1="132.808" x2="288.193" y2="132.808" gradientUnits="userSpaceOnUse">
<stop stop-color="#FFC444"/>
<stop offset="0.9964" stop-color="#F36F56"/>
</linearGradient>
<linearGradient id="paint26_linear_2848_3960" x1="295.773" y1="135.306" x2="322.891" y2="135.306" gradientUnits="userSpaceOnUse">
<stop offset="0.0054" stop-color="#D8DEE8"/>
<stop offset="1" stop-color="#F4F7FA"/>
</linearGradient>
<linearGradient id="paint27_linear_2848_3960" x1="326.307" y1="157.713" x2="352.082" y2="157.713" gradientUnits="userSpaceOnUse">
<stop stop-color="#444B8C"/>
<stop offset="0.9964" stop-color="#26264F"/>
</linearGradient>
<linearGradient id="paint28_linear_2848_3960" x1="322.432" y1="157.349" x2="309.733" y2="201.591" gradientUnits="userSpaceOnUse">
<stop stop-color="#FF9085"/>
<stop offset="1" stop-color="#FB6FBB"/>
</linearGradient>
<linearGradient id="paint29_linear_2848_3960" x1="353.876" y1="166.374" x2="341.177" y2="210.617" gradientUnits="userSpaceOnUse">
<stop stop-color="#FF9085"/>
<stop offset="1" stop-color="#FB6FBB"/>
</linearGradient>
<linearGradient id="paint30_linear_2848_3960" x1="316.054" y1="132.874" x2="353.785" y2="132.874" gradientUnits="userSpaceOnUse">
<stop stop-color="#444B8C"/>
<stop offset="0.9964" stop-color="#26264F"/>
</linearGradient>
<linearGradient id="paint31_linear_2848_3960" x1="249.616" y1="94.4347" x2="340.044" y2="94.4347" gradientUnits="userSpaceOnUse">
<stop stop-color="#AA80F9"/>
<stop offset="0.9964" stop-color="#6165D7"/>
</linearGradient>
<linearGradient id="paint32_linear_2848_3960" x1="249.632" y1="85.5673" x2="339.54" y2="85.5673" gradientUnits="userSpaceOnUse">
<stop stop-color="#AA80F9"/>
<stop offset="0.9964" stop-color="#6165D7"/>
</linearGradient>
<linearGradient id="paint33_linear_2848_3960" x1="249.604" y1="89.8951" x2="340.041" y2="89.8951" gradientUnits="userSpaceOnUse">
<stop stop-color="#AA80F9"/>
<stop offset="0.9964" stop-color="#6165D7"/>
</linearGradient>
<linearGradient id="paint34_linear_2848_3960" x1="247.514" y1="40.2042" x2="270.53" y2="99.4887" gradientUnits="userSpaceOnUse">
<stop stop-color="#AA80F9"/>
<stop offset="0.9964" stop-color="#6165D7"/>
</linearGradient>
<linearGradient id="paint35_linear_2848_3960" x1="239.273" y1="43.4039" x2="262.289" y2="102.689" gradientUnits="userSpaceOnUse">
<stop stop-color="#AA80F9"/>
<stop offset="0.9964" stop-color="#6165D7"/>
</linearGradient>
<linearGradient id="paint36_linear_2848_3960" x1="256.453" y1="85.6803" x2="241.504" y2="108.37" gradientUnits="userSpaceOnUse">
<stop stop-color="#AA80F9"/>
<stop offset="0.9964" stop-color="#6165D7"/>
</linearGradient>
<linearGradient id="paint37_linear_2848_3960" x1="337.648" y1="60.0311" x2="349.72" y2="91.1248" gradientUnits="userSpaceOnUse">
<stop stop-color="#FF9085"/>
<stop offset="1" stop-color="#FB6FBB"/>
</linearGradient>
<linearGradient id="paint38_linear_2848_3960" x1="333.325" y1="61.7085" x2="345.397" y2="92.8023" gradientUnits="userSpaceOnUse">
<stop stop-color="#FF9085"/>
<stop offset="1" stop-color="#FB6FBB"/>
</linearGradient>
<linearGradient id="paint39_linear_2848_3960" x1="342.336" y1="83.8823" x2="334.496" y2="95.7827" gradientUnits="userSpaceOnUse">
<stop stop-color="#FF9085"/>
<stop offset="1" stop-color="#FB6FBB"/>
</linearGradient>
</defs>
</svg>
